{
	"patcher" : 	{
		"fileversion" : 1,
		"appversion" : 		{
			"major" : 8,
			"minor" : 2,
			"revision" : 2,
			"architecture" : "x64",
			"modernui" : 1
		}
,
		"classnamespace" : "box",
		"rect" : [ 695.0, 79.0, 551.0, 622.0 ],
		"bglocked" : 0,
		"openinpresentation" : 0,
		"default_fontsize" : 12.0,
		"default_fontface" : 0,
		"default_fontname" : "Arial",
		"gridonopen" : 1,
		"gridsize" : [ 15.0, 15.0 ],
		"gridsnaponopen" : 1,
		"objectsnaponopen" : 1,
		"statusbarvisible" : 2,
		"toolbarvisible" : 1,
		"lefttoolbarpinned" : 0,
		"toptoolbarpinned" : 0,
		"righttoolbarpinned" : 0,
		"bottomtoolbarpinned" : 0,
		"toolbars_unpinned_last_save" : 0,
		"tallnewobj" : 0,
		"boxanimatetime" : 200,
		"enablehscroll" : 1,
		"enablevscroll" : 1,
		"devicewidth" : 0.0,
		"description" : "",
		"digest" : "",
		"tags" : "",
		"style" : "",
		"subpatcher_template" : "",
		"assistshowspatchername" : 0,
		"boxes" : [ 			{
				"box" : 				{
					"id" : "obj-63",
					"maxclass" : "scope~",
					"numinlets" : 2,
					"numoutlets" : 0,
					"patching_rect" : [ 531.0, 912.814803302288055, 287.0, 121.0 ]
				}

			}
, 			{
				"box" : 				{
					"id" : "obj-76",
					"maxclass" : "newobj",
					"numinlets" : 6,
					"numoutlets" : 1,
					"outlettype" : [ "" ],
					"patching_rect" : [ 701.0, 402.0, 103.0, 22.0 ],
					"text" : "scale 0. 431. 0. 1."
				}

			}
, 			{
				"box" : 				{
					"id" : "obj-65",
					"maxclass" : "message",
					"numinlets" : 2,
					"numoutlets" : 1,
					"outlettype" : [ "" ],
					"patching_rect" : [ 723.0, 345.0, 42.0, 22.0 ],
					"text" : "384."
				}

			}
, 			{
				"box" : 				{
					"id" : "obj-67",
					"maxclass" : "newobj",
					"numinlets" : 2,
					"numoutlets" : 3,
					"outlettype" : [ "float", "int", "int" ],
					"patching_rect" : [ 723.0, 309.0, 48.0, 22.0 ],
					"text" : "peak 0."
				}

			}
, 			{
				"box" : 				{
					"id" : "obj-8",
					"linecount" : 4,
					"maxclass" : "newobj",
					"numinlets" : 1,
					"numoutlets" : 18,
					"outlettype" : [ "", "", "", "", "", "", "int", "int", "int", "int", "int", "int", "int", "int", "int", "int", "int", "int" ],
					"patching_rect" : [ 701.0, 184.0, 237.0, 62.0 ],
					"text" : "\"/Users/sakurama/Desktop/Study/3rd year/Audio Engineering Project/sarcduino/externals/sarcduino.maxpat\""
				}

			}
, 			{
				"box" : 				{
					"id" : "obj-21",
					"maxclass" : "newobj",
					"numinlets" : 6,
					"numoutlets" : 1,
					"outlettype" : [ "" ],
					"patching_rect" : [ 520.0, 412.0, 143.0, 22.0 ],
					"text" : "scale 0. 130.789062 1. 0."
				}

			}
, 			{
				"box" : 				{
					"id" : "obj-23",
					"maxclass" : "newobj",
					"numinlets" : 0,
					"numoutlets" : 1,
					"outlettype" : [ "" ],
					"patching_rect" : [ 520.0, 374.0, 26.0, 22.0 ],
					"text" : "r rc"
				}

			}
, 			{
				"box" : 				{
					"id" : "obj-43",
					"maxclass" : "comment",
					"numinlets" : 1,
					"numoutlets" : 0,
					"patching_rect" : [ 405.0, 374.0, 26.0, 20.0 ],
					"text" : "Rc"
				}

			}
, 			{
				"box" : 				{
					"id" : "obj-49",
					"maxclass" : "message",
					"numinlets" : 2,
					"numoutlets" : 1,
					"outlettype" : [ "" ],
					"patching_rect" : [ 284.0, 398.0, 32.0, 22.0 ],
					"text" : "9 $1"
				}

			}
, 			{
				"box" : 				{
					"format" : 6,
					"id" : "obj-57",
					"maxclass" : "flonum",
					"maximum" : 1.0,
					"minimum" : 0.0,
					"numinlets" : 1,
					"numoutlets" : 2,
					"outlettype" : [ "", "bang" ],
					"parameter_enable" : 0,
					"patching_rect" : [ 284.0, 373.0, 100.0, 22.0 ]
				}

			}
, 			{
				"box" : 				{
					"id" : "obj-77",
					"maxclass" : "toggle",
					"numinlets" : 1,
					"numoutlets" : 1,
					"outlettype" : [ "int" ],
					"parameter_enable" : 0,
					"patching_rect" : [ 835.5, 274.0, 24.0, 24.0 ],
					"presentation" : 1,
					"presentation_rect" : [ 97.941176470588289, 262.5, 35.0, 35.0 ]
				}

			}
, 			{
				"box" : 				{
					"id" : "obj-81",
					"maxclass" : "number",
					"numinlets" : 1,
					"numoutlets" : 2,
					"outlettype" : [ "", "bang" ],
					"parameter_enable" : 0,
					"patching_rect" : [ 701.0, 274.0, 50.0, 22.0 ]
				}

			}
, 			{
				"box" : 				{
					"id" : "obj-35",
					"linecount" : 2,
					"maxclass" : "message",
					"numinlets" : 2,
					"numoutlets" : 1,
					"outlettype" : [ "" ],
					"patching_rect" : [ 145.0, 106.5, 43.5, 35.0 ],
					"text" : "103.65625"
				}

			}
, 			{
				"box" : 				{
					"id" : "obj-39",
					"maxclass" : "newobj",
					"numinlets" : 2,
					"numoutlets" : 3,
					"outlettype" : [ "float", "int", "int" ],
					"patching_rect" : [ 145.0, 69.0, 48.0, 22.0 ],
					"text" : "peak 0."
				}

			}
, 			{
				"box" : 				{
					"id" : "obj-69",
					"linecount" : 2,
					"maxclass" : "message",
					"numinlets" : 2,
					"numoutlets" : 1,
					"outlettype" : [ "" ],
					"patching_rect" : [ 60.0, 105.0, 42.0, 35.0 ],
					"text" : "206.203125"
				}

			}
, 			{
				"box" : 				{
					"id" : "obj-70",
					"maxclass" : "newobj",
					"numinlets" : 2,
					"numoutlets" : 3,
					"outlettype" : [ "float", "int", "int" ],
					"patching_rect" : [ 60.0, 69.0, 48.0, 22.0 ],
					"text" : "peak 0."
				}

			}
, 			{
				"box" : 				{
					"id" : "obj-72",
					"maxclass" : "newobj",
					"numinlets" : 6,
					"numoutlets" : 1,
					"outlettype" : [ "" ],
					"patching_rect" : [ 93.0, 184.0, 130.0, 22.0 ],
					"text" : "scale 0. 131.8125 1. 0."
				}

			}
, 			{
				"box" : 				{
					"id" : "obj-71",
					"maxclass" : "newobj",
					"numinlets" : 6,
					"numoutlets" : 1,
					"outlettype" : [ "" ],
					"patching_rect" : [ 350.5, 184.0, 130.0, 22.0 ],
					"text" : "scale 0. 131.8125 1. 0."
				}

			}
, 			{
				"box" : 				{
					"id" : "obj-66",
					"maxclass" : "newobj",
					"numinlets" : 6,
					"numoutlets" : 1,
					"outlettype" : [ "" ],
					"patching_rect" : [ 520.0, 184.0, 130.0, 22.0 ],
					"text" : "scale 0. 131.8125 1. 0."
				}

			}
, 			{
				"box" : 				{
					"id" : "obj-60",
					"linecount" : 10,
					"maxclass" : "comment",
					"numinlets" : 1,
					"numoutlets" : 0,
					"patching_rect" : [ 448.173890829086304, 552.0, 109.0, 141.0 ],
					"text" : "Fac - left edge\nMOne - x1\nKOne - y1\nMTwo - x2\nKTwo - y2\nKc - force1\nAlp - force2\nUb - slider\nRc - right edge\nOnOff - switch"
				}

			}
, 			{
				"box" : 				{
					"id" : "obj-32",
					"maxclass" : "newobj",
					"numinlets" : 0,
					"numoutlets" : 1,
					"outlettype" : [ "" ],
					"patching_rect" : [ 520.0, 144.0, 32.0, 22.0 ],
					"text" : "r fac"
				}

			}
, 			{
				"box" : 				{
					"id" : "obj-51",
					"maxclass" : "newobj",
					"numinlets" : 6,
					"numoutlets" : 1,
					"outlettype" : [ "" ],
					"patching_rect" : [ 520.0, 264.0, 143.0, 22.0 ],
					"text" : "scale 0. 130.789062 0. 1."
				}

			}
, 			{
				"box" : 				{
					"id" : "obj-53",
					"maxclass" : "newobj",
					"numinlets" : 0,
					"numoutlets" : 1,
					"outlettype" : [ "" ],
					"patching_rect" : [ 520.0, 230.0, 28.0, 22.0 ],
					"text" : "r kc"
				}

			}
, 			{
				"box" : 				{
					"id" : "obj-41",
					"maxclass" : "newobj",
					"numinlets" : 0,
					"numoutlets" : 1,
					"outlettype" : [ "" ],
					"patching_rect" : [ 274.0, 69.0, 32.0, 22.0 ],
					"text" : "r m2"
				}

			}
, 			{
				"box" : 				{
					"id" : "obj-24",
					"maxclass" : "newobj",
					"numinlets" : 6,
					"numoutlets" : 1,
					"outlettype" : [ "" ],
					"patching_rect" : [ 274.0, 152.0, 107.0, 22.0 ],
					"text" : "scale 26. 200 0. 1."
				}

			}
, 			{
				"box" : 				{
					"id" : "obj-22",
					"maxclass" : "newobj",
					"numinlets" : 0,
					"numoutlets" : 1,
					"outlettype" : [ "" ],
					"patching_rect" : [ 43.0, 37.0, 32.0, 22.0 ],
					"text" : "r m1"
				}

			}
, 			{
				"box" : 				{
					"id" : "obj-55",
					"maxclass" : "message",
					"numinlets" : 2,
					"numoutlets" : 1,
					"outlettype" : [ "" ],
					"patching_rect" : [ 16.0, 641.0, 39.0, 22.0 ],
					"text" : "10 $1"
				}

			}
, 			{
				"box" : 				{
					"id" : "obj-52",
					"maxclass" : "toggle",
					"numinlets" : 1,
					"numoutlets" : 1,
					"outlettype" : [ "int" ],
					"parameter_enable" : 1,
					"patching_rect" : [ 6.0, 607.0, 24.0, 24.0 ],
					"saved_attribute_attributes" : 					{
						"valueof" : 						{
							"parameter_enum" : [ "off", "on" ],
							"parameter_longname" : "toggle",
							"parameter_mmax" : 1,
							"parameter_shortname" : "toggle",
							"parameter_type" : 2
						}

					}
,
					"varname" : "toggle"
				}

			}
, 			{
				"box" : 				{
					"id" : "obj-50",
					"maxclass" : "newobj",
					"numinlets" : 6,
					"numoutlets" : 1,
					"outlettype" : [ "" ],
					"patching_rect" : [ 520.0, 341.0, 143.0, 22.0 ],
					"text" : "scale 0. 130.789062 0. 1."
				}

			}
, 			{
				"box" : 				{
					"id" : "obj-48",
					"maxclass" : "newobj",
					"numinlets" : 6,
					"numoutlets" : 1,
					"outlettype" : [ "" ],
					"patching_rect" : [ 43.0, 152.0, 107.0, 22.0 ],
					"text" : "scale 26. 200 0. 1."
				}

			}
, 			{
				"box" : 				{
					"id" : "obj-12",
					"maxclass" : "newobj",
					"numinlets" : 0,
					"numoutlets" : 1,
					"outlettype" : [ "" ],
					"patching_rect" : [ 520.0, 303.0, 32.0, 22.0 ],
					"text" : "r alp"
				}

			}
, 			{
				"box" : 				{
					"id" : "obj-16",
					"maxclass" : "newobj",
					"numinlets" : 0,
					"numoutlets" : 1,
					"outlettype" : [ "" ],
					"patching_rect" : [ 350.5, 69.0, 29.0, 22.0 ],
					"text" : "r k2"
				}

			}
, 			{
				"box" : 				{
					"id" : "obj-19",
					"maxclass" : "newobj",
					"numinlets" : 0,
					"numoutlets" : 1,
					"outlettype" : [ "" ],
					"patching_rect" : [ 124.0, 37.0, 29.0, 22.0 ],
					"text" : "r k1"
				}

			}
, 			{
				"box" : 				{
					"id" : "obj-1",
					"maxclass" : "scope~",
					"numinlets" : 2,
					"numoutlets" : 0,
					"patching_rect" : [ 227.481470108032227, 912.814803302288055, 287.0, 121.0 ]
				}

			}
, 			{
				"box" : 				{
					"autosave" : 1,
					"bgmode" : 0,
					"border" : 0,
					"clickthrough" : 0,
					"id" : "obj-6",
					"maxclass" : "newobj",
					"numinlets" : 2,
					"numoutlets" : 8,
					"offset" : [ 0.0, 0.0 ],
					"outlettype" : [ "signal", "signal", "", "list", "int", "", "", "" ],
					"patching_rect" : [ 70.0, 552.0, 345.0, 256.333321928977966 ],
					"save" : [ "#N", "vst~", "loaduniqueid", 0, "C74_VST3:/TwoMassCollisionNonlinearOscillator", ";" ],
					"saved_attribute_attributes" : 					{
						"valueof" : 						{
							"parameter_invisible" : 1,
							"parameter_longname" : "vst~[1]",
							"parameter_shortname" : "vst~[1]",
							"parameter_type" : 3
						}

					}
,
					"saved_object_attributes" : 					{
						"parameter_enable" : 1,
						"parameter_mappable" : 0
					}
,
					"snapshot" : 					{
						"filetype" : "C74Snapshot",
						"version" : 2,
						"minorversion" : 0,
						"name" : "snapshotlist",
						"origin" : "vst~",
						"type" : "list",
						"subtype" : "Undefined",
						"embed" : 1,
						"snapshot" : 						{
							"pluginname" : "TwoMassCollisionNonlinearOscillator.vst3info",
							"plugindisplayname" : "TwoMassCollisionNonlinearOscillator",
							"pluginsavedname" : "C74_VST3:/TwoMassCollisionNonlinearOscillator",
							"pluginsaveduniqueid" : 0,
							"version" : 1,
							"isbank" : 0,
							"isbase64" : 1,
							"sliderorder" : [  ],
							"slidervisibility" : [ 1, 1, 1, 1, 1, 1, 1, 1, 1, 1, 1 ],
							"blob" : "152.VMjLg7H....OVMEUy.Ea0cVZtMEcgQWY9vSRC8Vav8lak4Fc9XCLt3hKt3hKt3hKt3hYRUUSTEETIckVwTjQisVTTgkdEYjKAQjYPQSPWgUdMcjKAQjct3hdA4hKt3hKt3hKtnTUv.UQAslXuk0UXoWUFE0YQcEV77RRC8Vav8lak4Fc9vyKVMEUy.Ea0cVZtMEcgQWY9.."
						}
,
						"snapshotlist" : 						{
							"current_snapshot" : 0,
							"entries" : [ 								{
									"filetype" : "C74Snapshot",
									"version" : 2,
									"minorversion" : 0,
									"name" : "TwoMassCollisionNonlinearOscillator",
									"origin" : "TwoMassCollisionNonlinearOscillator.vst3info",
									"type" : "VST3",
									"subtype" : "AudioEffect",
									"embed" : 1,
									"snapshot" : 									{
										"pluginname" : "TwoMassCollisionNonlinearOscillator.vst3info",
										"plugindisplayname" : "TwoMassCollisionNonlinearOscillator",
										"pluginsavedname" : "C74_VST3:/TwoMassCollisionNonlinearOscillator",
										"pluginsaveduniqueid" : 0,
										"version" : 1,
										"isbank" : 0,
										"isbase64" : 1,
										"sliderorder" : [  ],
										"slidervisibility" : [ 1, 1, 1, 1, 1, 1, 1, 1, 1, 1, 1 ],
										"blob" : "152.VMjLg7H....OVMEUy.Ea0cVZtMEcgQWY9vSRC8Vav8lak4Fc9XCLt3hKt3hKt3hKt3hYRUUSTEETIckVwTjQisVTTgkdEYjKAQjYPQSPWgUdMcjKAQjct3hdA4hKt3hKt3hKtnTUv.UQAslXuk0UXoWUFE0YQcEV77RRC8Vav8lak4Fc9vyKVMEUy.Ea0cVZtMEcgQWY9.."
									}
,
									"fileref" : 									{
										"name" : "TwoMassCollisionNonlinearOscillator",
										"filename" : "TwoMassCollisionNonlinearOscillator.maxsnap",
										"filepath" : "~/Documents/Max 8/Snapshots",
										"filepos" : -1,
										"snapshotfileid" : "df9893c882975b9a5518c65f60da6395"
									}

								}
 ]
						}

					}
,
					"text" : "vst~ C74_VST3:/TwoMassCollisionNonlinearOscillator",
					"varname" : "vst~[1]",
					"viewvisibility" : 1
				}

			}
, 			{
				"box" : 				{
					"id" : "obj-20",
					"maxclass" : "button",
					"numinlets" : 1,
					"numoutlets" : 1,
					"outlettype" : [ "bang" ],
					"parameter_enable" : 0,
					"patching_rect" : [ 572.173890829086304, 705.162631213665009, 24.0, 24.0 ]
				}

			}
, 			{
				"box" : 				{
					"format" : 6,
					"id" : "obj-18",
					"maxclass" : "flonum",
					"numinlets" : 1,
					"numoutlets" : 2,
					"outlettype" : [ "", "bang" ],
					"parameter_enable" : 0,
					"patching_rect" : [ 572.173890829086304, 832.333321928977966, 196.739127635955811, 22.0 ]
				}

			}
, 			{
				"box" : 				{
					"id" : "obj-14",
					"maxclass" : "message",
					"numinlets" : 2,
					"numoutlets" : 1,
					"outlettype" : [ "" ],
					"patching_rect" : [ 606.043481349945068, 874.640888392925262, 211.956518650054932, 22.0 ],
					"text" : "42.584553"
				}

			}
, 			{
				"box" : 				{
					"id" : "obj-10",
					"maxclass" : "newobj",
					"numinlets" : 2,
					"numoutlets" : 1,
					"outlettype" : [ "float" ],
					"patching_rect" : [ 572.173890829086304, 777.814803302288055, 88.0, 22.0 ],
					"text" : "snapshot~ 740"
				}

			}
, 			{
				"box" : 				{
					"id" : "obj-4",
					"maxclass" : "comment",
					"numinlets" : 1,
					"numoutlets" : 0,
					"patching_rect" : [ 227.481470108032227, 864.925913393497467, 245.0, 20.0 ],
					"text" : "I use this to scale down amplitude for testing"
				}

			}
, 			{
				"box" : 				{
					"id" : "obj-3",
					"maxclass" : "newobj",
					"numinlets" : 2,
					"numoutlets" : 1,
					"outlettype" : [ "signal" ],
					"patching_rect" : [ 116.571428571428569, 912.814803302288055, 54.0, 22.0 ],
					"text" : "*~ 0.001"
				}

			}
, 			{
				"box" : 				{
					"id" : "obj-64",
					"maxclass" : "comment",
					"numinlets" : 1,
					"numoutlets" : 0,
					"patching_rect" : [ 321.481470108032227, 832.333321928977966, 171.0, 20.0 ],
					"text" : "This should always be -1. to 1."
				}

			}
, 			{
				"box" : 				{
					"fontface" : 0,
					"fontname" : "Arial",
					"fontsize" : 12.0,
					"id" : "obj-62",
					"maxclass" : "number~",
					"mode" : 2,
					"numinlets" : 2,
					"numoutlets" : 2,
					"outlettype" : [ "signal", "float" ],
					"patching_rect" : [ 138.990741729736328, 832.333321928977966, 170.018516540527344, 22.0 ],
					"sig" : 0.0
				}

			}
, 			{
				"box" : 				{
					"format" : 6,
					"id" : "obj-61",
					"maxclass" : "flonum",
					"numinlets" : 1,
					"numoutlets" : 2,
					"outlettype" : [ "", "bang" ],
					"parameter_enable" : 0,
					"patching_rect" : [ 83.259259939193726, 864.925913393497467, 131.481480121612549, 22.0 ]
				}

			}
, 			{
				"box" : 				{
					"id" : "obj-59",
					"maxclass" : "newobj",
					"numinlets" : 2,
					"numoutlets" : 1,
					"outlettype" : [ "signal" ],
					"patching_rect" : [ 48.259259939193726, 912.814803302288055, 54.0, 22.0 ],
					"text" : "*~ 0.001"
				}

			}
, 			{
				"box" : 				{
					"id" : "obj-58",
					"lastchannelcount" : 0,
					"maxclass" : "live.gain~",
					"numinlets" : 2,
					"numoutlets" : 5,
					"orientation" : 1,
					"outlettype" : [ "signal", "signal", "", "float", "list" ],
					"parameter_enable" : 1,
					"patching_rect" : [ 48.259259939193726, 944.962950229644775, 136.0, 47.0 ],
					"saved_attribute_attributes" : 					{
						"valueof" : 						{
							"parameter_longname" : "live.gain~",
							"parameter_mmax" : 6.0,
							"parameter_mmin" : -70.0,
							"parameter_shortname" : "live.gain~",
							"parameter_type" : 0,
							"parameter_unitstyle" : 4
						}

					}
,
					"varname" : "live.gain~"
				}

			}
, 			{
				"box" : 				{
					"id" : "obj-56",
					"maxclass" : "message",
					"numinlets" : 2,
					"numoutlets" : 1,
					"outlettype" : [ "" ],
					"patching_rect" : [ 405.0, 472.0, 49.0, 22.0 ],
					"text" : "params"
				}

			}
, 			{
				"box" : 				{
					"id" : "obj-54",
					"maxclass" : "preset",
					"numinlets" : 1,
					"numoutlets" : 4,
					"outlettype" : [ "preset", "int", "preset", "int" ],
					"patching_rect" : [ 572.173890829086304, 645.954532027244568, 100.0, 40.0 ],
					"preset_data" : [ 						{
							"number" : 1,
							"data" : [ 5, "obj-5", "flonum", "float", 0.179900005459785, 5, "obj-7", "flonum", "float", 0.013000000268221, 5, "obj-9", "flonum", "float", 0.620000004768372, 5, "obj-11", "flonum", "float", 0.117138996720314, 5, "obj-13", "flonum", "float", 0.001359999994747, 5, "obj-15", "flonum", "float", 0.689999997615814, 5, "obj-17", "flonum", "float", 0.0, 5, "<invalid>", "flonum", "float", 0.0, 5, "<invalid>", "flonum", "float", 0.059999998658895 ]
						}
, 						{
							"number" : 2,
							"data" : [ 5, "obj-5", "flonum", "float", 0.187000006437302, 5, "obj-7", "flonum", "float", 0.013000000268221, 5, "obj-9", "flonum", "float", 0.599994003772736, 5, "obj-11", "flonum", "float", 0.0, 5, "obj-13", "flonum", "float", 0.001000000047497, 5, "obj-15", "flonum", "float", 0.0, 5, "obj-17", "flonum", "float", 0.026000000536442, 5, "<invalid>", "flonum", "float", 0.0, 5, "<invalid>", "flonum", "float", 0.0 ]
						}
, 						{
							"number" : 3,
							"data" : [ 5, "obj-5", "flonum", "float", 0.179900005459785, 5, "obj-7", "flonum", "float", 0.013000000268221, 5, "obj-9", "flonum", "float", 0.620000004768372, 5, "obj-11", "flonum", "float", 0.116999998688698, 5, "obj-13", "flonum", "float", 0.001359999994747, 5, "obj-15", "flonum", "float", 0.999199986457825, 5, "obj-17", "flonum", "float", 0.026000000536442, 5, "<invalid>", "flonum", "float", 0.0, 5, "<invalid>", "flonum", "float", 0.0 ]
						}
 ]
				}

			}
, 			{
				"box" : 				{
					"id" : "obj-47",
					"maxclass" : "comment",
					"numinlets" : 1,
					"numoutlets" : 0,
					"patching_rect" : [ 765.5, 274.0, 24.0, 20.0 ],
					"text" : "Ub"
				}

			}
, 			{
				"box" : 				{
					"id" : "obj-46",
					"maxclass" : "comment",
					"numinlets" : 1,
					"numoutlets" : 0,
					"patching_rect" : [ 389.0, 317.0, 26.0, 20.0 ],
					"text" : "Alp"
				}

			}
, 			{
				"box" : 				{
					"id" : "obj-45",
					"maxclass" : "comment",
					"numinlets" : 1,
					"numoutlets" : 0,
					"patching_rect" : [ 376.0, 264.0, 23.0, 20.0 ],
					"text" : "Kc"
				}

			}
, 			{
				"box" : 				{
					"id" : "obj-44",
					"maxclass" : "comment",
					"numinlets" : 1,
					"numoutlets" : 0,
					"patching_rect" : [ 14.0, 472.0, 39.0, 20.0 ],
					"text" : "KTwo"
				}

			}
, 			{
				"box" : 				{
					"id" : "obj-42",
					"maxclass" : "comment",
					"numinlets" : 1,
					"numoutlets" : 0,
					"patching_rect" : [ 14.0, 420.0, 41.0, 20.0 ],
					"text" : "MTwo"
				}

			}
, 			{
				"box" : 				{
					"id" : "obj-40",
					"maxclass" : "comment",
					"numinlets" : 1,
					"numoutlets" : 0,
					"patching_rect" : [ 14.0, 368.0, 39.0, 20.0 ],
					"text" : "KOne"
				}

			}
, 			{
				"box" : 				{
					"id" : "obj-38",
					"maxclass" : "comment",
					"numinlets" : 1,
					"numoutlets" : 0,
					"patching_rect" : [ 14.0, 317.0, 41.0, 20.0 ],
					"text" : "MOne"
				}

			}
, 			{
				"box" : 				{
					"id" : "obj-37",
					"maxclass" : "comment",
					"numinlets" : 1,
					"numoutlets" : 0,
					"patching_rect" : [ 14.0, 264.0, 29.0, 20.0 ],
					"text" : "Fac"
				}

			}
, 			{
				"box" : 				{
					"id" : "obj-36",
					"maxclass" : "comment",
					"numinlets" : 1,
					"numoutlets" : 0,
					"patching_rect" : [ 870.0, 274.0, 68.0, 20.0 ],
					"text" : "Start/Stop"
				}

			}
, 			{
				"box" : 				{
					"id" : "obj-33",
					"maxclass" : "message",
					"numinlets" : 2,
					"numoutlets" : 1,
					"outlettype" : [ "" ],
					"patching_rect" : [ 835.5, 320.0, 39.0, 22.0 ],
					"text" : "10 $1"
				}

			}
, 			{
				"box" : 				{
					"id" : "obj-34",
					"maxclass" : "message",
					"numinlets" : 2,
					"numoutlets" : 1,
					"outlettype" : [ "" ],
					"patching_rect" : [ 701.0, 449.0, 32.0, 22.0 ],
					"text" : "8 $1"
				}

			}
, 			{
				"box" : 				{
					"id" : "obj-29",
					"maxclass" : "message",
					"numinlets" : 2,
					"numoutlets" : 1,
					"outlettype" : [ "" ],
					"patching_rect" : [ 268.0, 341.0, 32.0, 22.0 ],
					"text" : "7 $1"
				}

			}
, 			{
				"box" : 				{
					"id" : "obj-30",
					"maxclass" : "message",
					"numinlets" : 2,
					"numoutlets" : 1,
					"outlettype" : [ "" ],
					"patching_rect" : [ 253.0, 289.0, 32.0, 22.0 ],
					"text" : "6 $1"
				}

			}
, 			{
				"box" : 				{
					"id" : "obj-31",
					"maxclass" : "message",
					"numinlets" : 2,
					"numoutlets" : 1,
					"outlettype" : [ "" ],
					"patching_rect" : [ 133.0, 497.0, 32.0, 22.0 ],
					"text" : "5 $1"
				}

			}
, 			{
				"box" : 				{
					"id" : "obj-28",
					"maxclass" : "message",
					"numinlets" : 2,
					"numoutlets" : 1,
					"outlettype" : [ "" ],
					"patching_rect" : [ 114.0, 445.0, 32.0, 22.0 ],
					"text" : "4 $1"
				}

			}
, 			{
				"box" : 				{
					"id" : "obj-27",
					"maxclass" : "message",
					"numinlets" : 2,
					"numoutlets" : 1,
					"outlettype" : [ "" ],
					"patching_rect" : [ 93.0, 393.0, 32.0, 22.0 ],
					"text" : "3 $1"
				}

			}
, 			{
				"box" : 				{
					"id" : "obj-26",
					"maxclass" : "message",
					"numinlets" : 2,
					"numoutlets" : 1,
					"outlettype" : [ "" ],
					"patching_rect" : [ 70.0, 341.0, 32.0, 22.0 ],
					"text" : "2 $1"
				}

			}
, 			{
				"box" : 				{
					"id" : "obj-25",
					"maxclass" : "message",
					"numinlets" : 2,
					"numoutlets" : 1,
					"outlettype" : [ "" ],
					"patching_rect" : [ 51.0, 289.0, 32.0, 22.0 ],
					"text" : "1 $1"
				}

			}
, 			{
				"box" : 				{
					"format" : 6,
					"id" : "obj-17",
					"maxclass" : "flonum",
					"maximum" : 1.0,
					"minimum" : 0.0,
					"numinlets" : 1,
					"numoutlets" : 2,
					"outlettype" : [ "", "bang" ],
					"parameter_enable" : 0,
					"patching_rect" : [ 268.0, 316.0, 100.0, 22.0 ]
				}

			}
, 			{
				"box" : 				{
					"format" : 6,
					"id" : "obj-15",
					"maxclass" : "flonum",
					"maximum" : 1.0,
					"minimum" : 0.0,
					"numinlets" : 1,
					"numoutlets" : 2,
					"outlettype" : [ "", "bang" ],
					"parameter_enable" : 0,
					"patching_rect" : [ 133.0, 472.0, 100.0, 22.0 ]
				}

			}
, 			{
				"box" : 				{
					"format" : 6,
					"id" : "obj-13",
					"maxclass" : "flonum",
					"maximum" : 1.0,
					"minimum" : 0.0,
					"numinlets" : 1,
					"numoutlets" : 2,
					"outlettype" : [ "", "bang" ],
					"parameter_enable" : 0,
					"patching_rect" : [ 70.0, 316.0, 100.0, 22.0 ]
				}

			}
, 			{
				"box" : 				{
					"format" : 6,
					"id" : "obj-11",
					"maxclass" : "flonum",
					"maximum" : 1.0,
					"minimum" : 0.0,
					"numinlets" : 1,
					"numoutlets" : 2,
					"outlettype" : [ "", "bang" ],
					"parameter_enable" : 0,
					"patching_rect" : [ 114.0, 420.0, 100.0, 22.0 ]
				}

			}
, 			{
				"box" : 				{
					"format" : 6,
					"id" : "obj-9",
					"maxclass" : "flonum",
					"maximum" : 1.0,
					"minimum" : 0.0,
					"numinlets" : 1,
					"numoutlets" : 2,
					"outlettype" : [ "", "bang" ],
					"parameter_enable" : 0,
					"patching_rect" : [ 93.0, 368.0, 100.0, 22.0 ]
				}

			}
, 			{
				"box" : 				{
					"format" : 6,
					"id" : "obj-7",
					"maxclass" : "flonum",
					"maximum" : 1.0,
					"minimum" : 0.0,
					"numinlets" : 1,
					"numoutlets" : 2,
					"outlettype" : [ "", "bang" ],
					"parameter_enable" : 0,
					"patching_rect" : [ 253.0, 264.0, 100.0, 22.0 ]
				}

			}
, 			{
				"box" : 				{
					"format" : 6,
					"id" : "obj-5",
					"maxclass" : "flonum",
					"maximum" : 1.0,
					"minimum" : 0.0,
					"numinlets" : 1,
					"numoutlets" : 2,
					"outlettype" : [ "", "bang" ],
					"parameter_enable" : 0,
					"patching_rect" : [ 51.0, 264.0, 100.0, 22.0 ]
				}

			}
, 			{
				"box" : 				{
					"id" : "obj-2",
					"maxclass" : "ezdac~",
					"numinlets" : 2,
					"numoutlets" : 0,
					"patching_rect" : [ 48.259259939193726, 993.962950229644775, 45.0, 45.0 ]
				}

			}
 ],
		"lines" : [ 			{
				"patchline" : 				{
					"destination" : [ "obj-14", 1 ],
					"midpoints" : [ 581.673890829086304, 819.0, 808.5, 819.0 ],
					"order" : 0,
					"source" : [ "obj-10", 0 ]
				}

			}
, 			{
				"patchline" : 				{
					"destination" : [ "obj-18", 0 ],
					"order" : 1,
					"source" : [ "obj-10", 0 ]
				}

			}
, 			{
				"patchline" : 				{
					"destination" : [ "obj-28", 0 ],
					"source" : [ "obj-11", 0 ]
				}

			}
, 			{
				"patchline" : 				{
					"destination" : [ "obj-50", 0 ],
					"source" : [ "obj-12", 0 ]
				}

			}
, 			{
				"patchline" : 				{
					"destination" : [ "obj-26", 0 ],
					"source" : [ "obj-13", 0 ]
				}

			}
, 			{
				"patchline" : 				{
					"destination" : [ "obj-31", 0 ],
					"source" : [ "obj-15", 0 ]
				}

			}
, 			{
				"patchline" : 				{
					"destination" : [ "obj-71", 0 ],
					"source" : [ "obj-16", 0 ]
				}

			}
, 			{
				"patchline" : 				{
					"destination" : [ "obj-29", 0 ],
					"source" : [ "obj-17", 0 ]
				}

			}
, 			{
				"patchline" : 				{
					"destination" : [ "obj-39", 0 ],
					"midpoints" : [ 133.5, 60.0, 154.5, 60.0 ],
					"order" : 0,
					"source" : [ "obj-19", 0 ]
				}

			}
, 			{
				"patchline" : 				{
					"destination" : [ "obj-72", 0 ],
					"midpoints" : [ 133.5, 147.0, 150.0, 147.0, 150.0, 177.0, 102.5, 177.0 ],
					"order" : 1,
					"source" : [ "obj-19", 0 ]
				}

			}
, 			{
				"patchline" : 				{
					"destination" : [ "obj-10", 0 ],
					"source" : [ "obj-20", 0 ]
				}

			}
, 			{
				"patchline" : 				{
					"destination" : [ "obj-57", 0 ],
					"midpoints" : [ 529.5, 435.0, 441.0, 435.0, 441.0, 360.0, 300.0, 360.0, 300.0, 369.0, 293.5, 369.0 ],
					"source" : [ "obj-21", 0 ]
				}

			}
, 			{
				"patchline" : 				{
					"destination" : [ "obj-48", 0 ],
					"order" : 1,
					"source" : [ "obj-22", 0 ]
				}

			}
, 			{
				"patchline" : 				{
					"destination" : [ "obj-70", 0 ],
					"midpoints" : [ 52.5, 60.0, 69.5, 60.0 ],
					"order" : 0,
					"source" : [ "obj-22", 0 ]
				}

			}
, 			{
				"patchline" : 				{
					"destination" : [ "obj-21", 0 ],
					"source" : [ "obj-23", 0 ]
				}

			}
, 			{
				"patchline" : 				{
					"destination" : [ "obj-11", 0 ],
					"midpoints" : [ 283.5, 249.0, 204.0, 249.0, 204.0, 405.0, 126.0, 405.0, 126.0, 414.0, 123.5, 414.0 ],
					"source" : [ "obj-24", 0 ]
				}

			}
, 			{
				"patchline" : 				{
					"destination" : [ "obj-6", 0 ],
					"midpoints" : [ 60.5, 375.0, 79.5, 375.0 ],
					"source" : [ "obj-25", 0 ]
				}

			}
, 			{
				"patchline" : 				{
					"destination" : [ "obj-6", 0 ],
					"midpoints" : [ 79.5, 527.500002861022949, 79.5, 527.500002861022949 ],
					"source" : [ "obj-26", 0 ]
				}

			}
, 			{
				"patchline" : 				{
					"destination" : [ "obj-6", 0 ],
					"midpoints" : [ 102.5, 527.166668623685837, 79.5, 527.166668623685837 ],
					"source" : [ "obj-27", 0 ]
				}

			}
, 			{
				"patchline" : 				{
					"destination" : [ "obj-6", 0 ],
					"midpoints" : [ 123.5, 527.333334296941757, 79.5, 527.333334296941757 ],
					"source" : [ "obj-28", 0 ]
				}

			}
, 			{
				"patchline" : 				{
					"destination" : [ "obj-6", 0 ],
					"midpoints" : [ 277.5, 527.99999988079071, 79.5, 527.99999988079071 ],
					"source" : [ "obj-29", 0 ]
				}

			}
, 			{
				"patchline" : 				{
					"destination" : [ "obj-58", 1 ],
					"midpoints" : [ 126.071428571428569, 936.0, 174.759259939193726, 936.0 ],
					"source" : [ "obj-3", 0 ]
				}

			}
, 			{
				"patchline" : 				{
					"destination" : [ "obj-6", 0 ],
					"midpoints" : [ 262.5, 527.333333283662796, 79.5, 527.333333283662796 ],
					"source" : [ "obj-30", 0 ]
				}

			}
, 			{
				"patchline" : 				{
					"destination" : [ "obj-6", 0 ],
					"midpoints" : [ 142.5, 527.0, 79.5, 527.0 ],
					"source" : [ "obj-31", 0 ]
				}

			}
, 			{
				"patchline" : 				{
					"destination" : [ "obj-66", 0 ],
					"source" : [ "obj-32", 0 ]
				}

			}
, 			{
				"patchline" : 				{
					"destination" : [ "obj-6", 0 ],
					"midpoints" : [ 845.0, 527.75, 79.5, 527.75 ],
					"source" : [ "obj-33", 0 ]
				}

			}
, 			{
				"patchline" : 				{
					"destination" : [ "obj-6", 0 ],
					"midpoints" : [ 710.5, 527.5, 79.5, 527.5 ],
					"source" : [ "obj-34", 0 ]
				}

			}
, 			{
				"patchline" : 				{
					"destination" : [ "obj-35", 1 ],
					"midpoints" : [ 154.5, 99.0, 179.0, 99.0 ],
					"source" : [ "obj-39", 0 ]
				}

			}
, 			{
				"patchline" : 				{
					"destination" : [ "obj-24", 0 ],
					"source" : [ "obj-41", 0 ]
				}

			}
, 			{
				"patchline" : 				{
					"destination" : [ "obj-13", 0 ],
					"midpoints" : [ 52.5, 261.0, 48.0, 261.0, 48.0, 312.0, 79.5, 312.0 ],
					"source" : [ "obj-48", 0 ]
				}

			}
, 			{
				"patchline" : 				{
					"destination" : [ "obj-6", 0 ],
					"midpoints" : [ 293.5, 537.0, 79.5, 537.0 ],
					"source" : [ "obj-49", 0 ]
				}

			}
, 			{
				"patchline" : 				{
					"destination" : [ "obj-25", 0 ],
					"source" : [ "obj-5", 0 ]
				}

			}
, 			{
				"patchline" : 				{
					"destination" : [ "obj-17", 0 ],
					"midpoints" : [ 529.5, 366.0, 441.0, 366.0, 441.0, 303.0, 285.0, 303.0, 285.0, 312.0, 277.5, 312.0 ],
					"source" : [ "obj-50", 0 ]
				}

			}
, 			{
				"patchline" : 				{
					"destination" : [ "obj-7", 0 ],
					"midpoints" : [ 529.5, 288.0, 411.0, 288.0, 411.0, 249.0, 262.5, 249.0 ],
					"source" : [ "obj-51", 0 ]
				}

			}
, 			{
				"patchline" : 				{
					"destination" : [ "obj-55", 0 ],
					"midpoints" : [ 15.5, 633.0, 25.5, 633.0 ],
					"source" : [ "obj-52", 0 ]
				}

			}
, 			{
				"patchline" : 				{
					"destination" : [ "obj-51", 0 ],
					"source" : [ "obj-53", 0 ]
				}

			}
, 			{
				"patchline" : 				{
					"destination" : [ "obj-6", 0 ],
					"midpoints" : [ 25.5, 666.0, 57.0, 666.0, 57.0, 546.0, 79.5, 546.0 ],
					"source" : [ "obj-55", 0 ]
				}

			}
, 			{
				"patchline" : 				{
					"destination" : [ "obj-6", 0 ],
					"midpoints" : [ 414.5, 537.0, 79.5, 537.0 ],
					"source" : [ "obj-56", 0 ]
				}

			}
, 			{
				"patchline" : 				{
					"destination" : [ "obj-49", 0 ],
					"source" : [ "obj-57", 0 ]
				}

			}
, 			{
				"patchline" : 				{
					"destination" : [ "obj-2", 1 ],
					"source" : [ "obj-58", 1 ]
				}

			}
, 			{
				"patchline" : 				{
					"destination" : [ "obj-2", 0 ],
					"source" : [ "obj-58", 0 ]
				}

			}
, 			{
				"patchline" : 				{
					"destination" : [ "obj-58", 0 ],
					"source" : [ "obj-59", 0 ]
				}

			}
, 			{
				"patchline" : 				{
					"destination" : [ "obj-1", 0 ],
					"midpoints" : [ 79.5, 849.0, 69.0, 849.0, 69.0, 897.0, 236.981470108032227, 897.0 ],
					"order" : 1,
					"source" : [ "obj-6", 0 ]
				}

			}
, 			{
				"patchline" : 				{
					"destination" : [ "obj-10", 0 ],
					"midpoints" : [ 79.5, 819.0, 558.0, 819.0, 558.0, 771.0, 581.673890829086304, 771.0 ],
					"order" : 0,
					"source" : [ "obj-6", 0 ]
				}

			}
, 			{
				"patchline" : 				{
					"destination" : [ "obj-3", 0 ],
					"order" : 1,
					"source" : [ "obj-6", 1 ]
				}

			}
, 			{
				"patchline" : 				{
					"destination" : [ "obj-59", 0 ],
					"midpoints" : [ 79.5, 849.0, 57.759259939193726, 849.0 ],
					"order" : 3,
					"source" : [ "obj-6", 0 ]
				}

			}
, 			{
				"patchline" : 				{
					"destination" : [ "obj-62", 0 ],
					"midpoints" : [ 79.5, 819.0, 148.490741729736328, 819.0 ],
					"order" : 2,
					"source" : [ "obj-6", 0 ]
				}

			}
, 			{
				"patchline" : 				{
					"destination" : [ "obj-63", 0 ],
					"midpoints" : [ 126.071428571428569, 819.0, 540.5, 819.0 ],
					"order" : 0,
					"source" : [ "obj-6", 1 ]
				}

			}
, 			{
				"patchline" : 				{
					"destination" : [ "obj-3", 1 ],
					"midpoints" : [ 92.759259939193726, 897.0, 161.071428571428555, 897.0 ],
					"order" : 0,
					"source" : [ "obj-61", 0 ]
				}

			}
, 			{
				"patchline" : 				{
					"destination" : [ "obj-59", 1 ],
					"order" : 1,
					"source" : [ "obj-61", 0 ]
				}

			}
, 			{
				"patchline" : 				{
					"destination" : [ "obj-5", 0 ],
					"midpoints" : [ 529.5, 216.0, 60.5, 216.0 ],
					"source" : [ "obj-66", 0 ]
				}

			}
, 			{
				"patchline" : 				{
					"destination" : [ "obj-65", 1 ],
					"midpoints" : [ 732.5, 339.0, 755.5, 339.0 ],
					"source" : [ "obj-67", 0 ]
				}

			}
, 			{
				"patchline" : 				{
					"destination" : [ "obj-30", 0 ],
					"source" : [ "obj-7", 0 ]
				}

			}
, 			{
				"patchline" : 				{
					"destination" : [ "obj-69", 1 ],
					"midpoints" : [ 69.5, 99.0, 92.5, 99.0 ],
					"source" : [ "obj-70", 0 ]
				}

			}
, 			{
				"patchline" : 				{
					"destination" : [ "obj-15", 0 ],
					"midpoints" : [ 360.0, 249.0, 225.0, 249.0, 225.0, 459.0, 147.0, 459.0, 147.0, 468.0, 142.5, 468.0 ],
					"source" : [ "obj-71", 0 ]
				}

			}
, 			{
				"patchline" : 				{
					"destination" : [ "obj-9", 0 ],
					"source" : [ "obj-72", 0 ]
				}

			}
, 			{
				"patchline" : 				{
					"destination" : [ "obj-34", 0 ],
					"source" : [ "obj-76", 0 ]
				}

			}
, 			{
				"patchline" : 				{
					"destination" : [ "obj-33", 0 ],
					"source" : [ "obj-77", 0 ]
				}

			}
, 			{
				"patchline" : 				{
					"destination" : [ "obj-77", 0 ],
					"midpoints" : [ 787.441176470588289, 261.0, 845.0, 261.0 ],
					"source" : [ "obj-8", 6 ]
				}

			}
, 			{
				"patchline" : 				{
					"destination" : [ "obj-81", 0 ],
					"source" : [ "obj-8", 0 ]
				}

			}
, 			{
				"patchline" : 				{
					"destination" : [ "obj-67", 0 ],
					"midpoints" : [ 710.5, 303.0, 732.5, 303.0 ],
					"order" : 0,
					"source" : [ "obj-81", 0 ]
				}

			}
, 			{
				"patchline" : 				{
					"destination" : [ "obj-76", 0 ],
					"order" : 1,
					"source" : [ "obj-81", 0 ]
				}

			}
, 			{
				"patchline" : 				{
					"destination" : [ "obj-27", 0 ],
					"source" : [ "obj-9", 0 ]
				}

			}
 ],
		"parameters" : 		{
			"obj-52" : [ "toggle", "toggle", 0 ],
			"obj-58" : [ "live.gain~", "live.gain~", 0 ],
			"obj-6" : [ "vst~[1]", "vst~[1]", 0 ],
			"parameterbanks" : 			{

			}
,
			"inherited_shortname" : 1
		}
,
		"parameter_map" : 		{
			"key" : 			{
				"toggle" : 				{
					"srcname" : "0.modifiers.-2.code.key",
					"min" : 0.0,
					"max" : 1.0,
					"flags" : 1
				}

			}

		}
,
		"dependency_cache" : [ 			{
				"name" : "TwoMassCollisionNonlinearOscillator.maxsnap",
				"bootpath" : "~/Documents/Max 8/Snapshots",
				"patcherrelativepath" : "../../../../../../../Documents/Max 8/Snapshots",
				"type" : "mx@s",
				"implicit" : 1
			}
, 			{
				"name" : "sarcduino.maxpat",
				"bootpath" : "~/Desktop/Study/3rd year/Audio Engineering Project/sarcduino/externals",
				"patcherrelativepath" : "../../../sarcduino/externals",
				"type" : "JSON",
				"implicit" : 1
			}
 ],
		"autosave" : 0,
		"styles" : [ 			{
				"name" : "tap",
				"default" : 				{
					"fontname" : [ "Lato Light" ]
				}
,
				"parentstyle" : "",
				"multi" : 0
			}
 ]
	}

}
